<svg width="450" height="84" viewBox="0 0 450 84" fill="none" xmlns="http://www.w3.org/2000/svg">
<path d="M69.3303 22.3769C68.8438 22.3769 68.4495 21.9826 68.4495 21.4961C68.4495 21.0096 68.8438 20.6152 69.3303 20.6152C69.8168 20.6152 70.2112 21.0096 70.2112 21.4961C70.2112 21.9826 69.8168 22.3769 69.3303 22.3769Z" fill="white"/>
<path d="M4.23483 74.1867C4.74015 70.2831 8.10064 66.078 11.0766 64.2407L12.815 62.9179C13.4673 62.4216 13.9408 61.7117 14.1488 60.9188C14.2172 60.6582 14.1417 60.3035 14.0546 59.8929C14.0369 59.8095 14.0192 59.726 14.0025 59.6425C13.5149 57.2208 13.1557 54.8066 12.9313 52.451C12.8747 51.8569 13.3155 51.3319 13.9104 51.2853H13.9111C14.4902 51.2401 14.9991 51.666 15.0543 52.2443C15.2715 54.5284 15.6203 56.8705 16.0934 59.222C16.1089 59.2981 16.1249 59.3739 16.141 59.4497C16.2604 60.0113 16.4089 60.7104 16.2121 61.4603C15.8839 62.7115 15.1363 63.8319 14.1068 64.6152L12.3259 65.9704L12.2353 66.0323C9.85184 67.4854 7.06277 70.9348 6.43359 73.9685C7.45997 72.6604 9.37294 70.3753 14.3194 70.5446C14.3463 70.5455 14.3726 70.5459 14.399 70.5459C16.896 70.5459 17.9788 66.5518 17.989 66.5131L18.1462 65.9081L19.9292 65.4426L20.3628 65.8894C20.3927 65.92 23.3558 68.9317 25.5393 67.6046C29.7879 65.0216 32.5737 66.0915 34.1063 66.7274C32.3236 64.5967 28.7335 62.7755 26.044 62.6816L22.2783 62.5499C21.3731 62.5182 20.5476 62.0806 20.0131 61.3493C19.3074 60.3831 19.0121 59.1999 19.1757 58.0099C19.637 47.318 22.0599 38.6909 26.378 32.3683C29.75 27.431 34.2791 23.8711 39.8523 21.7741C40.4146 21.5626 41.0403 21.8656 41.2319 22.4349C41.4161 22.9821 41.1295 23.5719 40.5891 23.7752C31.4021 27.2307 25.4481 34.7982 22.8042 46.3426C24.3071 43.3047 26.3565 40.208 29.1543 37.3269C34.085 32.2488 40.4541 28.6984 47.5731 27.0597C49.4934 26.6177 51.4437 26.3219 53.4072 26.1685C53.4252 26.1674 53.4429 26.1651 53.461 26.1639V26.1642C58.7354 25.7598 64.106 26.3933 69.2585 28.0516L76.1792 30.2261C76.3085 30.2668 76.4417 30.2821 76.5733 30.2738C74.8191 29.6184 71.9482 28.4014 69.1529 26.5813C64.3859 23.4777 58.9987 21.7913 53.5738 21.7044C50.9695 21.6624 48.46 21.8547 46.1001 22.2755C45.5312 22.3769 44.9843 22.0126 44.8654 21.4473L44.8652 21.4468C44.7417 20.8599 45.1254 20.2831 45.7157 20.1778C48.2134 19.7317 50.8627 19.5281 53.608 19.5719C59.435 19.6651 65.2128 21.4709 70.3167 24.7938C73.0805 26.5933 75.9872 27.786 77.6001 28.3761C77.4758 27.7959 77.1224 27.2723 76.5892 26.944L73.4707 25.0238L73.3844 24.5584C72.0371 17.2972 66.8977 13.6556 62.8234 11.8793C53.5381 7.83125 39.9229 8.97165 31.1526 14.5322L31.1252 14.5491C17.4986 22.623 14.6582 36.6009 14.7862 47.2962C14.7931 47.8786 14.3352 48.3594 13.7529 48.3772C13.1557 48.3952 12.6606 47.9184 12.6535 47.3211C12.5669 40.0831 13.8195 33.5633 16.3817 27.9273C18.0938 24.161 20.3679 20.8534 23.1767 18.0304L23.1793 17.989C23.2118 17.4824 23.3107 15.9407 21.8537 14.2853C21.1566 13.4932 20.1261 13.0972 18.7047 13.0755C18.1362 13.067 17.5948 12.769 17.347 12.2573C17.0332 11.6088 17.2319 10.8511 17.7959 10.4393C20.8967 8.17808 24.6183 7.70361 27.8497 7.53774C31.4167 7.35432 35.4679 7.33299 40.8964 8.37512C48.621 6.64245 57.1507 7.07951 63.6758 9.92419C70.0392 12.6985 74.0802 17.4553 75.3889 23.7002L77.7078 25.1279C79.4088 26.1754 80.1799 28.2364 79.5853 30.1424C79.4143 30.6906 79.1141 31.1895 78.6841 31.5698C77.7916 32.3594 76.6217 32.6001 75.5402 32.2606L68.612 30.0834C63.4763 28.4304 58.1627 27.8869 53.0305 28.3692C50.6891 28.8688 48.9199 31.5378 48.1322 32.7271L48.0203 32.8954C47.4582 33.7392 46.4248 35.5463 46.2122 36.1822C45.8247 37.3341 44.9566 38.2475 43.8308 38.6883C43.3549 38.8747 42.8558 38.967 42.358 38.967C41.6911 38.9669 41.0267 38.8008 40.425 38.4727L40.3191 38.415C38.7777 37.5736 37.9566 35.8525 38.2757 34.1329C38.3615 33.6681 38.4763 33.2145 38.6136 32.7706C35.701 34.3815 33.0232 36.4029 30.6842 38.8117C24.3873 45.2966 22.1016 52.9675 21.2929 58.2603C21.1933 58.9131 21.3502 59.5626 21.7344 60.0893C21.8793 60.2876 22.1071 60.4087 22.3527 60.4174L26.1183 60.5491C29.6023 60.6709 33.9653 62.9544 36.0508 65.7479C36.5409 66.4045 36.6613 67.278 36.3648 68.0279C36.1752 68.5076 35.8702 68.839 35.4587 69.0133C34.7605 69.3084 34.0908 69.0298 33.3817 68.7349C32.0582 68.1843 30.0579 67.3521 26.6472 69.4259C23.9652 71.0568 21.0836 69.2645 19.6839 68.1369C19.0287 69.777 17.4414 72.6786 14.4098 72.6781C14.3565 72.6781 14.302 72.6773 14.2477 72.6753C10.2553 72.5419 8.92342 74.2469 8.03993 75.3758C7.54562 76.0074 7.07886 76.604 6.272 76.6446C6.24608 76.6461 6.22015 76.6468 6.19423 76.6468C5.71386 76.6466 5.25349 76.4205 4.82431 75.9735C4.36838 75.4982 4.15329 74.8537 4.23302 74.2037L4.23483 74.1867ZM27.9586 9.66776C25.4959 9.79426 22.9453 10.0846 20.668 11.1934C21.7981 11.4915 22.7309 12.0542 23.4543 12.8763C24.3427 13.8856 24.9143 14.9936 25.1689 16.1848C26.6615 14.912 28.2805 13.7565 30.024 12.7224C31.8462 11.5686 33.8671 10.5972 36.0103 9.80869C32.9198 9.49829 30.3286 9.54619 27.9586 9.66776ZM41.3402 36.5428L41.446 36.6006C41.9492 36.8754 42.5201 36.9115 43.0528 36.7028C43.5898 36.4923 44.0047 36.0548 44.1901 35.504C44.5017 34.5728 45.6938 32.5412 46.2455 31.713L46.3539 31.5496C46.7487 30.9536 47.3483 30.0496 48.1455 29.1512C45.8882 29.6655 43.6922 30.3854 41.591 31.303C40.9962 32.2839 40.5865 33.3641 40.3727 34.5216C40.2221 35.3327 40.6111 36.145 41.3402 36.5428Z" fill="white"/>
<path d="M55.526 73H50.591V42.76H55.526V73ZM87.7226 42.76V73H85.2236C84.8456 73 84.5236 72.937 84.2576 72.811C83.9916 72.671 83.7396 72.447 83.5016 72.139L66.8906 50.803C66.9326 51.209 66.9606 51.615 66.9746 52.021C67.0026 52.413 67.0166 52.777 67.0166 53.113V73H62.6906V42.76H65.2526C65.4626 42.76 65.6376 42.774 65.7776 42.802C65.9316 42.816 66.0716 42.851 66.1976 42.907C66.3236 42.963 66.4426 43.047 66.5546 43.159C66.6666 43.271 66.7856 43.411 66.9116 43.579L83.5436 64.936C83.5016 64.502 83.4666 64.075 83.4386 63.655C83.4246 63.235 83.4176 62.843 83.4176 62.479V42.76H87.7226ZM121.473 57.88C121.473 60.12 121.109 62.171 120.381 64.033C119.653 65.881 118.624 67.47 117.294 68.8C115.978 70.13 114.389 71.166 112.527 71.908C110.679 72.636 108.621 73 106.353 73H94.9289V42.76H106.353C108.621 42.76 110.679 43.131 112.527 43.873C114.389 44.601 115.978 45.63 117.294 46.96C118.624 48.29 119.653 49.886 120.381 51.748C121.109 53.596 121.473 55.64 121.473 57.88ZM116.454 57.88C116.454 56.144 116.216 54.583 115.74 53.197C115.278 51.811 114.606 50.642 113.724 49.69C112.856 48.738 111.799 48.01 110.553 47.506C109.307 46.988 107.907 46.729 106.353 46.729H99.8639V69.031H106.353C107.907 69.031 109.307 68.779 110.553 68.275C111.799 67.771 112.856 67.043 113.724 66.091C114.606 65.125 115.278 63.956 115.74 62.584C116.216 61.198 116.454 59.63 116.454 57.88ZM131.815 73H126.88V42.76H131.815V73ZM154.982 61.66L150.824 50.614C150.488 49.76 150.145 48.675 149.795 47.359C149.641 48.017 149.473 48.626 149.291 49.186C149.109 49.732 148.941 50.215 148.787 50.635L144.629 61.66H154.982ZM164.285 73H160.484C160.05 73 159.7 72.895 159.434 72.685C159.168 72.461 158.965 72.188 158.825 71.866L156.305 65.188H143.285L140.765 71.866C140.653 72.146 140.457 72.405 140.177 72.643C139.897 72.881 139.547 73 139.127 73H135.326L147.317 42.76H152.294L164.285 73ZM192.846 42.76V73H190.347C189.969 73 189.647 72.937 189.381 72.811C189.115 72.671 188.863 72.447 188.625 72.139L172.014 50.803C172.056 51.209 172.084 51.615 172.098 52.021C172.126 52.413 172.14 52.777 172.14 53.113V73H167.814V42.76H170.376C170.586 42.76 170.761 42.774 170.901 42.802C171.055 42.816 171.195 42.851 171.321 42.907C171.447 42.963 171.566 43.047 171.678 43.159C171.79 43.271 171.909 43.411 172.035 43.579L188.667 64.936C188.625 64.502 188.59 64.075 188.562 63.655C188.548 63.235 188.541 62.843 188.541 62.479V42.76H192.846ZM226.324 47.926C226.17 48.178 226.009 48.367 225.841 48.493C225.673 48.605 225.463 48.661 225.211 48.661C224.945 48.661 224.644 48.549 224.308 48.325C223.986 48.101 223.58 47.856 223.09 47.59C222.614 47.31 222.047 47.058 221.389 46.834C220.731 46.596 219.947 46.477 219.037 46.477C218.197 46.477 217.455 46.582 216.811 46.792C216.181 47.002 215.649 47.296 215.215 47.674C214.781 48.052 214.452 48.5 214.228 49.018C214.018 49.522 213.913 50.075 213.913 50.677C213.913 51.447 214.116 52.091 214.522 52.609C214.928 53.113 215.46 53.547 216.118 53.911C216.79 54.275 217.553 54.597 218.407 54.877C219.261 55.143 220.129 55.43 221.011 55.738C221.907 56.046 222.782 56.396 223.636 56.788C224.49 57.18 225.246 57.677 225.904 58.279C226.576 58.881 227.115 59.616 227.521 60.484C227.927 61.352 228.13 62.409 228.13 63.655C228.13 64.999 227.899 66.259 227.437 67.435C226.975 68.611 226.303 69.64 225.421 70.522C224.553 71.39 223.475 72.076 222.187 72.58C220.913 73.084 219.457 73.336 217.819 73.336C216.853 73.336 215.908 73.238 214.984 73.042C214.074 72.86 213.199 72.601 212.359 72.265C211.533 71.915 210.756 71.495 210.028 71.005C209.3 70.515 208.649 69.969 208.075 69.367L209.503 67.015C209.629 66.819 209.79 66.665 209.986 66.553C210.182 66.441 210.399 66.385 210.637 66.385C210.959 66.385 211.316 66.539 211.708 66.847C212.1 67.141 212.569 67.47 213.115 67.834C213.675 68.184 214.347 68.513 215.131 68.821C215.915 69.115 216.853 69.262 217.945 69.262C219.723 69.262 221.095 68.828 222.061 67.96C223.041 67.092 223.531 65.895 223.531 64.369C223.531 63.515 223.328 62.822 222.922 62.29C222.516 61.744 221.977 61.289 221.305 60.925C220.647 60.561 219.891 60.253 219.037 60.001C218.183 59.749 217.315 59.483 216.433 59.203C215.551 58.909 214.683 58.573 213.829 58.195C212.975 57.803 212.212 57.299 211.54 56.683C210.882 56.053 210.35 55.283 209.944 54.373C209.538 53.449 209.335 52.301 209.335 50.929C209.335 49.837 209.545 48.78 209.965 47.758C210.399 46.736 211.022 45.833 211.834 45.049C212.66 44.251 213.675 43.614 214.879 43.138C216.083 42.662 217.455 42.424 218.995 42.424C220.731 42.424 222.32 42.697 223.762 43.243C225.218 43.789 226.471 44.566 227.521 45.574L226.324 47.926ZM252.318 69.031L252.297 73H233.439V42.76H252.297V46.729H238.374V55.843H249.504V59.686H238.374V69.031H252.318ZM273.64 61.66L269.482 50.614C269.146 49.76 268.803 48.675 268.453 47.359C268.299 48.017 268.131 48.626 267.949 49.186C267.767 49.732 267.599 50.215 267.445 50.635L263.287 61.66H273.64ZM282.943 73H279.142C278.708 73 278.358 72.895 278.092 72.685C277.826 72.461 277.623 72.188 277.483 71.866L274.963 65.188H261.943L259.423 71.866C259.311 72.146 259.115 72.405 258.835 72.643C258.555 72.881 258.205 73 257.785 73H253.984L265.975 42.76H270.952L282.943 73ZM300.471 46.729V56.41H312.294V60.379H300.471V73H295.536V42.76H314.394V46.729H300.471ZM347.41 57.88C347.41 60.12 347.046 62.185 346.318 64.075C345.59 65.965 344.561 67.596 343.231 68.968C341.915 70.326 340.326 71.39 338.464 72.16C336.616 72.93 334.558 73.315 332.29 73.315C330.036 73.315 327.978 72.93 326.116 72.16C324.268 71.39 322.679 70.326 321.349 68.968C320.019 67.596 318.99 65.965 318.262 64.075C317.534 62.185 317.17 60.12 317.17 57.88C317.17 55.64 317.534 53.575 318.262 51.685C318.99 49.795 320.019 48.164 321.349 46.792C322.679 45.42 324.268 44.349 326.116 43.579C327.978 42.809 330.036 42.424 332.29 42.424C334.558 42.424 336.616 42.809 338.464 43.579C340.326 44.349 341.915 45.42 343.231 46.792C344.561 48.164 345.59 49.795 346.318 51.685C347.046 53.575 347.41 55.64 347.41 57.88ZM342.391 57.88C342.391 56.144 342.153 54.583 341.677 53.197C341.215 51.811 340.543 50.635 339.661 49.669C338.793 48.703 337.736 47.961 336.49 47.443C335.244 46.925 333.844 46.666 332.29 46.666C330.75 46.666 329.357 46.925 328.111 47.443C326.865 47.961 325.801 48.703 324.919 49.669C324.037 50.635 323.358 51.811 322.882 53.197C322.406 54.583 322.168 56.144 322.168 57.88C322.168 59.63 322.406 61.198 322.882 62.584C323.358 63.97 324.037 65.146 324.919 66.112C325.801 67.064 326.865 67.799 328.111 68.317C329.357 68.821 330.75 69.073 332.29 69.073C333.844 69.073 335.244 68.821 336.49 68.317C337.736 67.799 338.793 67.064 339.661 66.112C340.543 65.146 341.215 63.97 341.677 62.584C342.153 61.198 342.391 59.63 342.391 57.88ZM381.207 57.88C381.207 60.12 380.843 62.185 380.115 64.075C379.387 65.965 378.358 67.596 377.028 68.968C375.712 70.326 374.123 71.39 372.261 72.16C370.413 72.93 368.355 73.315 366.087 73.315C363.833 73.315 361.775 72.93 359.913 72.16C358.065 71.39 356.476 70.326 355.146 68.968C353.816 67.596 352.787 65.965 352.059 64.075C351.331 62.185 350.967 60.12 350.967 57.88C350.967 55.64 351.331 53.575 352.059 51.685C352.787 49.795 353.816 48.164 355.146 46.792C356.476 45.42 358.065 44.349 359.913 43.579C361.775 42.809 363.833 42.424 366.087 42.424C368.355 42.424 370.413 42.809 372.261 43.579C374.123 44.349 375.712 45.42 377.028 46.792C378.358 48.164 379.387 49.795 380.115 51.685C380.843 53.575 381.207 55.64 381.207 57.88ZM376.188 57.88C376.188 56.144 375.95 54.583 375.474 53.197C375.012 51.811 374.34 50.635 373.458 49.669C372.59 48.703 371.533 47.961 370.287 47.443C369.041 46.925 367.641 46.666 366.087 46.666C364.547 46.666 363.154 46.925 361.908 47.443C360.662 47.961 359.598 48.703 358.716 49.669C357.834 50.635 357.155 51.811 356.679 53.197C356.203 54.583 355.965 56.144 355.965 57.88C355.965 59.63 356.203 61.198 356.679 62.584C357.155 63.97 357.834 65.146 358.716 66.112C359.598 67.064 360.662 67.799 361.908 68.317C363.154 68.821 364.547 69.073 366.087 69.073C367.641 69.073 369.041 68.821 370.287 68.317C371.533 67.799 372.59 67.064 373.458 66.112C374.34 65.146 375.012 63.97 375.474 62.584C375.95 61.198 376.188 59.63 376.188 57.88ZM413.135 57.88C413.135 60.12 412.771 62.171 412.043 64.033C411.315 65.881 410.286 67.47 408.956 68.8C407.64 70.13 406.051 71.166 404.189 71.908C402.341 72.636 400.283 73 398.015 73H386.591V42.76H398.015C400.283 42.76 402.341 43.131 404.189 43.873C406.051 44.601 407.64 45.63 408.956 46.96C410.286 48.29 411.315 49.886 412.043 51.748C412.771 53.596 413.135 55.64 413.135 57.88ZM408.116 57.88C408.116 56.144 407.878 54.583 407.402 53.197C406.94 51.811 406.268 50.642 405.386 49.69C404.518 48.738 403.461 48.01 402.215 47.506C400.969 46.988 399.569 46.729 398.015 46.729H391.526V69.031H398.015C399.569 69.031 400.969 68.779 402.215 68.275C403.461 67.771 404.518 67.043 405.386 66.091C406.268 65.125 406.94 63.956 407.402 62.584C407.878 61.198 408.116 59.63 408.116 57.88ZM434.355 47.926C434.201 48.178 434.04 48.367 433.872 48.493C433.704 48.605 433.494 48.661 433.242 48.661C432.976 48.661 432.675 48.549 432.339 48.325C432.017 48.101 431.611 47.856 431.121 47.59C430.645 47.31 430.078 47.058 429.42 46.834C428.762 46.596 427.978 46.477 427.068 46.477C426.228 46.477 425.486 46.582 424.842 46.792C424.212 47.002 423.68 47.296 423.246 47.674C422.812 48.052 422.483 48.5 422.259 49.018C422.049 49.522 421.944 50.075 421.944 50.677C421.944 51.447 422.147 52.091 422.553 52.609C422.959 53.113 423.491 53.547 424.149 53.911C424.821 54.275 425.584 54.597 426.438 54.877C427.292 55.143 428.16 55.43 429.042 55.738C429.938 56.046 430.813 56.396 431.667 56.788C432.521 57.18 433.277 57.677 433.935 58.279C434.607 58.881 435.146 59.616 435.552 60.484C435.958 61.352 436.161 62.409 436.161 63.655C436.161 64.999 435.93 66.259 435.468 67.435C435.006 68.611 434.334 69.64 433.452 70.522C432.584 71.39 431.506 72.076 430.218 72.58C428.944 73.084 427.488 73.336 425.85 73.336C424.884 73.336 423.939 73.238 423.015 73.042C422.105 72.86 421.23 72.601 420.39 72.265C419.564 71.915 418.787 71.495 418.059 71.005C417.331 70.515 416.68 69.969 416.106 69.367L417.534 67.015C417.66 66.819 417.821 66.665 418.017 66.553C418.213 66.441 418.43 66.385 418.668 66.385C418.99 66.385 419.347 66.539 419.739 66.847C420.131 67.141 420.6 67.47 421.146 67.834C421.706 68.184 422.378 68.513 423.162 68.821C423.946 69.115 424.884 69.262 425.976 69.262C427.754 69.262 429.126 68.828 430.092 67.96C431.072 67.092 431.562 65.895 431.562 64.369C431.562 63.515 431.359 62.822 430.953 62.29C430.547 61.744 430.008 61.289 429.336 60.925C428.678 60.561 427.922 60.253 427.068 60.001C426.214 59.749 425.346 59.483 424.464 59.203C423.582 58.909 422.714 58.573 421.86 58.195C421.006 57.803 420.243 57.299 419.571 56.683C418.913 56.053 418.381 55.283 417.975 54.373C417.569 53.449 417.366 52.301 417.366 50.929C417.366 49.837 417.576 48.78 417.996 47.758C418.43 46.736 419.053 45.833 419.865 45.049C420.691 44.251 421.706 43.614 422.91 43.138C424.114 42.662 425.486 42.424 427.026 42.424C428.762 42.424 430.351 42.697 431.793 43.243C433.249 43.789 434.502 44.566 435.552 45.574L434.355 47.926Z" fill="white"/>
</svg>
